<?xml version="1.0" encoding="UTF-8" standalone="no"?>
<!-- Created with Inkscape (http://www.inkscape.org/) -->

<svg
   xmlns:dc="http://purl.org/dc/elements/1.1/"
   xmlns:cc="http://creativecommons.org/ns#"
   xmlns:rdf="http://www.w3.org/1999/02/22-rdf-syntax-ns#"
   xmlns:svg="http://www.w3.org/2000/svg"
   xmlns="http://www.w3.org/2000/svg"
   xmlns:sodipodi="http://sodipodi.sourceforge.net/DTD/sodipodi-0.dtd"
   xmlns:inkscape="http://www.inkscape.org/namespaces/inkscape"
   width="210mm"
   height="297mm"
   id="svg6683"
   version="1.1"
   inkscape:version="0.48.3.1 r9886"
   sodipodi:docname="softwareball_v1.svg">
  <defs
     id="defs3" />
  <sodipodi:namedview
     inkscape:document-units="mm"
     id="base"
     pagecolor="#24303c"
     bordercolor="#666666"
     borderopacity="1.0"
     inkscape:pageopacity="0"
     inkscape:pageshadow="2"
     inkscape:zoom="0.98994949"
     inkscape:cx="52.518495"
     inkscape:cy="454.47383"
     inkscape:current-layer="g6596"
     showgrid="false"
     inkscape:window-width="1680"
     inkscape:window-height="1002"
     inkscape:window-x="0"
     inkscape:window-y="0"
     inkscape:window-maximized="1" />
  <metadata
     id="metadata4">
    <rdf:RDF>
      <cc:Work
         rdf:about="">
        <dc:format>image/svg+xml</dc:format>
        <dc:type
           rdf:resource="http://purl.org/dc/dcmitype/StillImage" />
        <dc:title></dc:title>
      </cc:Work>
    </rdf:RDF>
  </metadata>
  <g
     inkscape:label="Layer 1"
     inkscape:groupmode="layer"
     id="layer1">
    <g
       id="g6596"
       transform="matrix(0.64271242,0,0,0.64271242,972.79523,-8090.9136)">
      <g
         id="g3122">
        <path
           sodipodi:nodetypes="ccccccccczzzzzccccc"
           inkscape:connector-curvature="0"
           id="path3010-9-0-5-9-8-1-8"
           d="m -954.64977,13694.22 c -6.52912,6.812 -10.05418,16.172 -10.31046,25.549 -0.54316,9.864 1.42071,20.188 7.37756,28.267 3.35797,4.721 8.38799,8.964 14.47638,8.943 4.77865,0.269 8.82069,-2.935 12.20852,-5.911 8.0302,-8.063 12.11479,-19.666 11.73896,-30.962 -0.50859,-11.686 -5.63431,-23.685 -15.34171,-30.6 -3.17479,-2.417 -7.3233,-1.834 -10.89543,-0.833 -3.49244,1.003 -6.75077,2.973 -9.25382,5.547 z m 13.5018,11.726 c 1.98104,11.388 2.91497,12.33 0.10934,25.641 -2.80564,13.31 -6.17434,16.989 -10.79203,4.704 -4.61768,-12.285 -3.89953,-20.622 0.24998,-31.424 4.14952,-10.803 8.45167,-10.31 10.43271,1.079 z m 13.24957,3.275 c 2.20264,9.065 2.72144,13.447 -0.28445,26.916 -2.83478,6.987 -6.45827,12.64 -6.2171,7.999 1.51936,-14.719 1.76073,-24.554 0.74886,-39.314 -0.69155,-12.342 4.71162,-2.342 5.75269,4.399 z"
           style="font-size:medium;font-style:normal;font-variant:normal;font-weight:normal;font-stretch:normal;text-indent:0;text-align:start;text-decoration:none;line-height:normal;letter-spacing:normal;word-spacing:normal;text-transform:none;direction:ltr;block-progression:tb;writing-mode:lr-tb;text-anchor:start;baseline-shift:baseline;color:#000000;fill:#317192;fill-opacity:1;stroke:none;stroke-width:12.40282631;marker:none;visibility:visible;display:inline;overflow:visible;enable-background:accumulate;font-family:Sans;-inkscape-font-specification:Sans" />
        <path
           inkscape:connector-curvature="0"
           d="m -1018.0592,13771.654 c 16.5557,-5.258 27.73548,-8.989 33.53938,-11.192 1.3762,-0.522 2.3953,-1.354 3.0574,-2.495 0.63935,-1.201 0.84745,-2.547 0.6242,-4.037 l -1.4508,-8.691 -20.64268,7.837 c -6.2826,2.385 -11.0945,2.603 -14.4357,0.653 -3.3639,-2.008 -5.6101,-6.393 -6.7385,-13.152 l -0.4836,-2.897 c -1.1284,-6.76 -0.5211,-12.193 1.8219,-16.3 2.3203,-4.166 6.6217,-7.442 12.9043,-9.827 l 31.50263,-11.959 2.25682,13.519 -27.91265,10.596 c -3.59,1.363 -5.0626,3.976 -4.4178,7.838 l 0.3224,1.931 c 0.6448,3.863 2.7622,5.113 6.3522,3.75 l 16.15518,-6.132 c 5.86375,-2.226 10.42497,-2.383 13.68367,-0.471 3.2586,1.912 5.4026,6.027 6.4319,12.345 l 0.806,4.828 c 1.0291,6.318 0.4207,11.478 -1.8253,15.479 -2.2461,4.002 -6.301,7.116 -12.16462,9.341 -3.05165,1.159 -6.30535,2.326 -9.76135,3.501 l -8.3036,2.741 c -6.15678,1.995 -12.53848,3.938 -19.14518,5.83 l -2.1762,-13.036"
           style="font-size:96px;font-style:italic;font-variant:normal;font-weight:normal;font-stretch:normal;text-align:start;line-height:125%;letter-spacing:0px;word-spacing:0px;writing-mode:lr-tb;text-anchor:start;fill:#317192;fill-opacity:1;stroke:none;font-family:Russo One;-inkscape-font-specification:Russo One Italic"
           id="path4161-9-4-3-9" />
        <path
           inkscape:connector-curvature="0"
           d="m -895.32495,13656.504 c -1.536,1.049 -3.5638,2.406 -6.0834,4.069 -2.5195,1.663 -4.6584,3.188 -6.4165,4.576 -1.7582,1.388 -2.7403,2.571 -2.9465,3.549 -0.2063,0.979 -0.087,1.904 0.3569,2.776 l 2.2208,4.363 12.4325,-9.815 5.9962,11.778 -12.4325,9.815 15.7677,30.972 -13.186,10.41 -15.7678,-30.972 -5.2744,4.164 -5.9962,-11.778 5.2745,-4.164 -3.1092,-6.107 c -1.9934,-3.971 -2.5724,-7.958 -1.737,-11.961 0.8355,-4.003 2.9611,-7.352 6.3769,-10.049 3.0642,-2.419 6.3584,-4.857 9.8826,-7.313 3.5242,-2.456 6.4059,-4.487 8.6453,-6.091 l 5.9961,11.778"
           style="font-size:96px;font-style:italic;font-variant:normal;font-weight:normal;font-stretch:normal;text-align:start;line-height:125%;letter-spacing:0px;word-spacing:0px;writing-mode:lr-tb;text-anchor:start;fill:#317192;fill-opacity:1;stroke:none;font-family:Russo One;-inkscape-font-specification:Russo One Italic"
           id="path4165-4-5-1-5" />
        <path
           inkscape:connector-curvature="0"
           d="m -841.93515,13681.419 c -4.4371,4.569 -8.9332,8.768 -13.4883,12.599 -3.3306,2.801 -6.6486,3.878 -9.9539,3.229 -3.3053,-0.649 -6.0157,-2.927 -8.1312,-6.834 l -12.0098,-21.886 -4.4082,3.707 -6.3582,-11.587 4.4082,-3.707 -4.1823,-11.535 11.3878,-9.578 5.6517,10.299 9.1837,-7.724 6.3582,11.587 -9.1837,7.724 10.8324,19.74 c 0.471,0.859 1.1083,1.368 1.9121,1.528 0.8038,0.161 1.5731,-0.07 2.3078,-0.686 l 9.551,-8.033 6.1227,11.157"
           style="font-size:96px;font-style:italic;font-variant:normal;font-weight:normal;font-stretch:normal;text-align:start;line-height:125%;letter-spacing:0px;word-spacing:0px;writing-mode:lr-tb;text-anchor:start;fill:#317192;fill-opacity:1;stroke:none;font-family:Russo One;-inkscape-font-specification:Russo One Italic"
           id="path4167-9-5-5-0" />
        <path
           inkscape:connector-curvature="0"
           d="m -838.26755,13641.925 c 8.0068,15.26 18.0222,25.884 30.046,31.872 l -3.1496,11.206 c -8.2255,-1.405 -15.8248,-4.884 -22.7982,-10.435 -6.9733,-5.552 -12.8134,-12.805 -17.5202,-21.76 -4.7069,-8.954 -7.7134,-18.505 -9.0197,-28.652 -1.3063,-10.146 -0.8027,-20.195 1.5106,-30.146 l 9.5266,0.927 c -0.4039,16.065 3.3976,31.728 11.4045,46.988"
           style="font-size:96px;font-style:italic;font-variant:normal;font-weight:normal;font-stretch:normal;text-align:start;line-height:125%;letter-spacing:0px;word-spacing:0px;writing-mode:lr-tb;text-anchor:start;fill:#317192;fill-opacity:1;stroke:none;font-family:Russo One;-inkscape-font-specification:Russo One Italic"
           id="path4169-6-5-3-6" />
        <path
           inkscape:connector-curvature="0"
           d="m -783.53904,13603.958 -10.11231,-32.558 13.35001,-12.429 15.6286,54.967 -12.9987,12.102 -23.46221,-20.13 9.4096,33.213 -12.9987,12.101 -38.8153,-33.38 13.3499,-12.428 22.7596,20.783 -10.1122,-32.558 11.2421,-10.466 22.75961,20.783"
           style="font-size:96px;font-style:italic;font-variant:normal;font-weight:normal;font-stretch:normal;text-align:start;line-height:125%;letter-spacing:0px;word-spacing:0px;writing-mode:lr-tb;text-anchor:start;fill:#317192;fill-opacity:1;stroke:none;font-family:Russo One;-inkscape-font-specification:Russo One Italic"
           id="path4171-7-8-8-6" />
        <path
           inkscape:connector-curvature="0"
           d="m -745.96364,13575.886 c 2.3179,-2.477 4.5623,-5.811 6.7331,-10.003 l -3.418,-4.778 -9.5125,10.163 c -0.6561,0.701 -1.0129,1.55 -1.0705,2.548 -0.058,0.998 0.1985,1.896 0.7682,2.692 l 0.5696,0.796 c 0.5697,0.796 1.2631,1.226 2.0802,1.29 0.8171,0.06 1.5537,-0.255 2.2098,-0.956 l 1.6401,-1.752 m -34.3535,-18.087 c 7.2441,-9.612 14.0807,-17.852 20.5098,-24.721 2.9741,-3.177 6.1406,-4.64 9.4995,-4.389 3.359,0.252 6.321,2.191 8.886,5.819 l 22.21681,31.053 -10.16855,10.863 -3.50434,-3.28 c -0.86955,3.832 -2.11292,7.314 -3.73002,10.447 -1.6201,3.042 -3.1737,5.357 -4.6606,6.946 l -2.2962,2.453 c -2.974,3.177 -6.1405,4.64 -9.4995,4.389 -3.359,-0.251 -6.321,-2.191 -8.8859,-5.819 l -2.5635,-3.583 c -2.565,-3.628 -3.7338,-7.484 -3.5065,-11.566 0.2274,-4.083 1.8281,-7.713 4.8021,-10.89 l 13.4487,-14.368 -2.2786,-3.185 c -0.5697,-0.796 -1.2631,-1.226 -2.0802,-1.29 -0.8172,-0.06 -1.5537,0.255 -2.2098,0.956 -2.8428,3.037 -5.8735,6.556 -9.092,10.557 -3.1747,3.953 -5.7636,7.14 -7.7664,9.561 l -7.1208,-9.953"
           style="font-size:96px;font-style:italic;font-variant:normal;font-weight:normal;font-stretch:normal;text-align:start;line-height:125%;letter-spacing:0px;word-spacing:0px;writing-mode:lr-tb;text-anchor:start;fill:#317192;fill-opacity:1;stroke:none;font-family:Russo One;-inkscape-font-specification:Russo One Italic"
           id="path4173-9-0-0-4" />
        <path
           inkscape:connector-curvature="0"
           d="m -716.8128,13507.013 c -2.67583,3.016 -4.8459,6.908 -6.51023,11.677 l 20.96992,27.716 -11.14931,12.567 -31.30722,-41.378 9.8751,-11.131 4.47669,4.356 c 0.69923,-8.02 3.04509,-14.281 7.03759,-18.781 l 2.86696,-3.232 9.15588,12.102 -5.41538,6.104"
           style="font-size:96px;font-style:italic;font-variant:normal;font-weight:normal;font-stretch:normal;text-align:start;line-height:125%;letter-spacing:0px;word-spacing:0px;writing-mode:lr-tb;text-anchor:start;fill:#317192;fill-opacity:1;stroke:none;font-family:Russo One;-inkscape-font-specification:Russo One Italic"
           id="path4175-7-5-1-0" />
        <path
           inkscape:connector-curvature="0"
           d="m -697.43239,13480.288 c -1.6747,1.937 -1.71142,3.936 -0.11015,5.997 l 3.30263,4.253 10.67629,-12.343 -3.30263,-4.253 c -1.60128,-2.062 -3.23927,-2.125 -4.91398,-0.189 l -5.65216,6.535 m 42.21786,10.623 c -7.27988,10.373 -14.20642,19.359 -20.77965,26.959 -2.84702,3.292 -5.95365,4.878 -9.3199,4.759 -3.36626,-0.12 -6.4021,-1.941 -9.10753,-5.466 l -14.41147,-18.558 c -3.00237,-3.866 -4.45245,-7.913 -4.35024,-12.14 0.0538,-4.269 1.6508,-8.218 4.79086,-11.849 l 12.56034,-14.521 c 3.14009,-3.631 6.4626,-5.369 9.96754,-5.214 3.45653,0.112 6.68599,2.102 9.68839,5.968 l 11.10884,14.305 -21.66659,25.05 2.40192,3.093 c 0.60047,0.773 1.31021,1.175 2.12921,1.207 0.81899,0.03 1.54249,-0.316 2.17052,-1.042 4.1449,-4.793 9.91549,-12.198 17.31178,-22.217 l 7.50598,9.666"
           style="font-size:96px;font-style:italic;font-variant:normal;font-weight:normal;font-stretch:normal;text-align:start;line-height:125%;letter-spacing:0px;word-spacing:0px;writing-mode:lr-tb;text-anchor:start;fill:#317192;fill-opacity:1;stroke:none;font-family:Russo One;-inkscape-font-specification:Russo One Italic"
           id="path4177-8-4-9-8" />
        <path
           inkscape:connector-curvature="0"
           d="m -662.39606,13456.558 c -11.00519,-13.262 -23.0109,-21.571 -36.01716,-24.928 l 0.75057,-11.615 c 8.33785,-0.336 16.49441,1.486 24.46972,5.466 7.97536,3.98 15.19608,9.86 21.6622,17.64 6.46611,7.78 11.39305,16.497 14.78082,26.15 3.38774,9.653 4.98488,19.587 4.79141,29.801 l -9.51112,1.075 c -2.94575,-15.798 -9.92122,-30.328 -20.92644,-43.589"
           style="font-size:96px;font-style:italic;font-variant:normal;font-weight:normal;font-stretch:normal;text-align:start;line-height:125%;letter-spacing:0px;word-spacing:0px;writing-mode:lr-tb;text-anchor:start;fill:#317192;fill-opacity:1;stroke:none;font-family:Russo One;-inkscape-font-specification:Russo One Italic"
           id="path4179-7-2-4-1" />
        <path
           inkscape:connector-curvature="0"
           d="m -673.87784,13408.303 22.64108,-31.015 c 3.69806,-5.065 7.40825,-7.705 11.13057,-7.92 3.67066,-0.252 7.51834,1.804 11.54308,6.168 2.64869,2.885 4.31369,5.922 4.99499,9.114 0.66734,3.102 0.61513,5.996 -0.15662,8.681 4.04281,-3.15 8.49452,-3.387 13.35513,-0.71 1.75337,0.963 3.53881,2.425 5.35632,4.385 4.31108,4.732 6.61784,9.388 6.92027,13.966 0.30236,4.579 -1.39546,9.402 -5.09347,14.467 l -24.33916,33.342 -46.35219,-50.478 m 56.68955,0.497 c -2.64871,-2.885 -5.10511,-2.776 -7.36921,0.325 l -11.32054,15.508 9.27043,10.095 11.32055,-15.507 c 2.26409,-3.102 2.07179,-6.095 -0.57689,-8.979 l -1.32434,-1.442 m -20.23896,-17.865 c -2.64869,-2.884 -5.10509,-2.776 -7.36921,0.326 l -9.62246,13.181 9.27044,10.096 9.62246,-13.182 c 2.26411,-3.101 2.07182,-6.094 -0.57688,-8.979 l -1.32435,-1.442"
           style="font-size:96px;font-style:italic;font-variant:normal;font-weight:normal;font-stretch:normal;text-align:start;line-height:125%;letter-spacing:0px;word-spacing:0px;writing-mode:lr-tb;text-anchor:start;fill:#317192;fill-opacity:1;stroke:none;font-family:Russo One;-inkscape-font-specification:Russo One Italic"
           id="path4181-5-8-8-3" />
        <path
           inkscape:connector-curvature="0"
           d="m -586.72022,13378.353 c 1.80167,-2.874 3.36703,-6.576 4.69609,-11.106 l -4.26842,-4.036 -7.39365,11.794 c -0.5099,0.814 -0.69769,1.716 -0.56336,2.706 0.13433,0.991 0.5572,1.823 1.2686,2.495 l 0.7114,0.673 c 0.7114,0.672 1.47421,0.962 2.28841,0.868 0.81421,-0.09 1.47627,-0.548 1.98618,-1.361 l 1.27475,-2.033 m -37.17799,-11.184 c 5.27236,-10.82 10.40706,-20.215 15.40413,-28.187 2.3116,-3.687 5.13991,-5.728 8.48494,-6.124 3.34506,-0.396 6.62329,0.942 9.83472,4.012 l 27.74471,26.231 -7.90356,12.608 -4.06693,-2.55 c -0.12069,3.928 -0.67517,7.584 -1.66344,10.968 -1.00854,3.295 -2.09069,5.865 -3.24647,7.709 l -1.78467,2.846 c -2.31159,3.688 -5.1399,5.729 -8.48494,6.125 -3.34504,0.396 -6.62328,-0.942 -9.83471,-4.013 l -3.20132,-3.026 c -3.21141,-3.071 -5.0959,-6.632 -5.65347,-10.683 -0.55754,-4.05 0.31948,-7.919 2.63104,-11.607 l 10.4531,-16.674 -2.84561,-2.691 c -0.7114,-0.672 -1.4742,-0.961 -2.28842,-0.868 -0.8142,0.09 -1.47625,0.548 -1.98617,1.361 -2.20959,3.525 -4.51146,7.558 -6.90563,12.1 -2.36013,4.488 -4.29172,8.112 -5.79476,10.871 l -8.89254,-8.408"
           style="font-size:96px;font-style:italic;font-variant:normal;font-weight:normal;font-stretch:normal;text-align:start;line-height:125%;letter-spacing:0px;word-spacing:0px;writing-mode:lr-tb;text-anchor:start;fill:#317192;fill-opacity:1;stroke:none;font-family:Russo One;-inkscape-font-specification:Russo One Italic"
           id="path4183-0-4-8-6" />
        <path
           inkscape:connector-curvature="0"
           d="m -545.99708,13332.602 c -1.53643,4.189 -3.23267,8.001 -5.08871,11.436 -1.82563,3.378 -4.39472,5.373 -7.7073,5.983 -3.31257,0.611 -6.67022,-0.513 -10.07295,-3.37 l -42.18401,-35.018 7.98711,-14.78 40.30079,33.455 c 0.75329,0.625 1.53316,0.865 2.33962,0.718 0.80646,-0.146 1.43789,-0.641 1.8943,-1.486 l 2.73843,-5.067 9.79272,8.129"
           style="font-size:96px;font-style:italic;font-variant:normal;font-weight:normal;font-stretch:normal;text-align:start;line-height:125%;letter-spacing:0px;word-spacing:0px;writing-mode:lr-tb;text-anchor:start;fill:#317192;fill-opacity:1;stroke:none;font-family:Russo One;-inkscape-font-specification:Russo One Italic"
           id="path4185-4-0-9-8" />
        <path
           inkscape:connector-curvature="0"
           d="m -532.15273,13303.053 c -1.26827,4.279 -2.7199,8.19 -4.35489,11.735 -1.60821,3.487 -4.04596,5.64 -7.31326,6.459 -3.2673,0.819 -6.68931,-0.09 -10.26602,-2.726 l -44.31528,-32.278 7.03587,-15.256 42.33692,30.838 c 0.79135,0.576 1.58482,0.766 2.38041,0.569 0.7956,-0.197 1.39442,-0.731 1.79647,-1.603 l 2.4123,-5.231 10.28748,7.494"
           style="font-size:96px;font-style:italic;font-variant:normal;font-weight:normal;font-stretch:normal;text-align:start;line-height:125%;letter-spacing:0px;word-spacing:0px;writing-mode:lr-tb;text-anchor:start;fill:#317192;fill-opacity:1;stroke:none;font-family:Russo One;-inkscape-font-specification:Russo One Italic"
           id="path4187-6-9-1-52" />
        <path
           inkscape:connector-curvature="0"
           id="path4908-2-4-2"
           d="m -1037.1429,13403.259 c -12.3018,-13.128 3.2351,-42.781 -20.8904,-46.58 -22.5841,-6.582 -39.676,-24.967 -62.1752,-31.613 1.6995,5.828 -4.0507,31.793 -15.495,19.855 -2.322,-14.397 -0.049,-35.134 -17.2146,-40.941 -3.3855,-10.492 -3.9277,-22.699 -5.9989,-33.895 7.2702,-16.207 25.3761,-22.948 37.276,-35.15 13.1074,-7.408 22.2243,-20.145 24.5412,-33.996 40.294,-33.733 81.1459,-66.869 121.50354,-100.465 13.11501,-7.665 30.94277,-2.682 40.35529,-18.184 10.39128,-13.021 26.6154,-20.072 41.08245,-8.111 25.77496,13.001 52.65871,23.79 78.01626,37.587 2.60318,20.44 8.39232,41.556 3.62035,62.01 -2.13979,15.042 15.10302,40.289 -4.89785,47.187 -15.00928,-10.141 -0.21024,-35.61 -16.06693,-45.716 -12.19085,8.314 -6.87293,31.94 -5.15255,46.235 8.30788,10.21 -4.31087,37.074 -13.41427,18.784 -2.81862,-10.923 0.69849,-48.586 -18.37181,-35.419 -3.18823,14.83 -2.19618,30.406 1.33188,45.549 8.82482,12.926 -12.7039,31.648 -15.07032,10.995 -1.29618,-11.015 -0.19907,-46.419 -17.81462,-30.698 -3.13698,15.368 -1.48374,31.323 2.0414,46.88 7.96639,14.579 -16.7895,26.264 -15.84357,6.493 -0.58748,-8.912 -0.4916,-42.738 -14.51189,-29.74 -3.49841,14.706 -2.74164,30.152 0.70628,45.233 9.46267,13.369 -12.214,33.813 -14.99915,11.33 -0.60983,-10.685 -0.84749,-45.445 -17.41151,-29.67 -3.56411,16.574 -1.12299,33.745 2.30702,50.567 5.5253,17.942 -20.87747,22.765 -16.02959,1.436 2.54637,-11.168 -6.41223,-42.627 -19.42983,-24.695 0.7307,16.159 -2.9272,31.99 1.8264,48.128 11.697,11.589 -12.54358,34.675 -14.42338,13.809 -2.1629,-13.302 1.7926,-37.242 -17.1369,-38.64 -7.6661,12.256 -4.8161,31.583 -2.4252,46.711 2.5799,9.119 5.0327,26.908 -9.8346,24.724 z m -16.0106,-50.619 c 2.6857,-7.963 -7.2742,-37.846 -4.7476,-14.304 1.6659,2.659 0.896,16.051 4.7476,14.304 z m 33.2896,-24.86 c 2.8673,-7.47 -6.2664,-36.96 -4.9371,-15.844 1.4179,4.134 1.4585,14.948 4.9371,15.844 z m -7.5331,-2.409 c 0.7998,-6.571 -3.7496,-35.569 -7.5504,-20.582 6.1541,3.629 2.7676,22.513 7.5504,20.582 z m -27.4578,-3.722 c 6.7503,-4.9 14.312,-13.876 3.0153,-4.832 -0.9118,0.321 -7.6567,7.023 -3.0153,4.832 z m 10.1991,-18.104 c 72.1632,-61.136 144.07808,-122.608 216.18823,-183.777 15.50057,-13.033 -18.55708,-15.705 -27.03642,-23.449 -18.55855,-8.561 -36.8161,-17.803 -55.53457,-25.997 -13.20479,5.586 -25.45855,17.598 -34.2983,27.045 19.33972,12.416 41.44752,20.161 60.229,33.349 19.2663,15.545 -3.94342,32.356 -16.73738,41.771 -33.52669,27.625 -66.27277,56.274 -100.28336,83.261 -15.9616,12.835 -33.5397,-0.09 -48.1513,-7.869 -16.5249,-8.683 -33.3415,-16.869 -49.3196,-26.548 -18.2517,15.377 -37.3515,29.777 -55.0512,45.786 29.2329,18.45 58.6455,36.822 88.4104,54.398 7.3393,-5.811 14.4143,-11.953 21.5845,-17.97 z m 4.0454,4.49 c -0.9818,-1.384 -0.987,1.382 0,0 z m 46.21898,-7.295 c -0.268,-9.853 0.6452,-39.792 -14.44308,-21.174 15.45268,-2.435 9.77708,15.475 14.44308,21.174 z m -26.63168,-3.945 c 16.6417,-13.308 -2.8239,-3.267 0,0 z m 33.64618,0.585 c 3.1442,-6.566 -6.1666,-37.946 -4.7835,-16.381 1.7821,3.983 0.9672,16.081 4.7835,16.381 z m -31.46568,-8.994 c -0.4637,-1.41 -0.9519,1.372 0,0 z m 8.9656,-1.469 c -1.2946,-1.716 -1.4007,2.021 0,0 z m -5.3894,-1.554 c -0.8373,-1.592 -2.253,2.297 0,0 z m 4.5145,-4.298 c -0.4804,-1.52 -1.3812,1.469 0,0 z m 54.92024,-11.218 c 1.8977,-8.019 -7.43045,-37.028 -5.00158,-13.796 1.60554,1.614 1.01276,18.892 5.00158,13.796 z m -7.4959,-3.628 c -2.03873,-12.894 0.28963,10.257 0,0 z m -22.43546,-2.78 c 16.35399,-12.48 -4.759,-2.142 -3.5019,2.729 l 1.4969,-1.01 2.005,-1.719 z m -27.45718,-6.595 c 17.66918,-8.726 31.41528,-23.76 47.0137,-35.652 26.13334,-22.382 52.97593,-43.999 78.98425,-66.467 6.67422,-10.417 -14.87036,10.657 -19.42432,13.56 -31.87342,26.481 -63.47361,53.336 -95.49403,79.607 -9.0269,6.843 -21.8453,8.534 -31.2019,1.705 -20.3508,-9.504 -39.8092,-21.641 -60.2574,-30.406 10.641,9.892 25.9316,13.858 38.2926,21.632 13.2988,5.901 26.9075,18.215 42.0871,16.021 z m 47.19424,-6.227 c -2.97998,-12.855 -3.95931,5.903 0.5847,3.435 l -0.5847,-3.435 z m -8.3177,2.709 c -0.98429,-1.381 -0.98429,1.381 0,0 z m 47.3035,-9.25 c 2.22046,-7.87 -7.31148,-37.607 -4.9079,-14.303 1.92073,2.113 0.57491,17.918 4.9079,14.303 z m -31.0005,-4.285 c 5.48992,-3.72 15.4268,-14.508 4.2158,-5.786 -0.47518,0 -8.68069,7.583 -4.2158,5.786 z m 14.691,-13.082 c -1.74236,-0.731 -0.12115,1.884 0,0 z m 5.7679,-4.439 c 1.77146,-5.803 -6.4216,1.238 0,0 z m 41.669,-1.738 c 3.12044,-8.526 -7.39,-38.535 -4.57594,-14.328 1.75544,2.799 0.7742,14.893 4.57594,14.328 z m -7.0308,-3.903 c -1.61712,-8.48 0.0614,7.454 0,0 z m -24.9212,-3.949 c 17.70245,-16.196 -10.13888,5.27 0,0 z m 22.3714,-11.714 c -6.87183,-20.652 2.9387,18.856 0,0 z m -11.8301,2.227 c -1.91759,-2.078 -1.87127,3.748 0,0 z m 2.8895,-2.264 c -0.46604,-1.408 -0.95011,1.372 0,0 z m 50.1471,-5.675 c 2.20443,-6.397 -6.65853,-37.156 -5.22923,-15.467 1.3391,1.71 1.64611,20.928 5.22923,15.467 z m -7.9656,-6.883 c -2.07408,-9.651 0.96065,9.792 0,0 z m -24.012,-0.09 c 6.69576,-5.001 13.67329,-13.34 1.88456,-3.95 -1.99794,0.816 -8.03246,8.461 -1.88456,3.95 z m 21.5847,-15.089 c -3.77133,-14.599 -4.17086,8.842 0.59989,3.794 l -0.59989,-3.794 z m -8.5472,3.467 c -0.46797,-1.409 -0.94855,1.375 0,0 z m 47.986,-7.367 c 1.79749,-7.15 -6.84302,-36.849 -5.15599,-15.051 1.65172,1.731 0.89738,20.268 5.15599,15.051 z m -29.3137,-5.636 c 11.59734,-8.315 -2.81593,-3.836 -2.5778,2.216 l 2.5778,-2.216 0,0 z m 10.0305,-8.797 c -1.34556,-1.714 -1.36656,2.057 0,0 z m -2.119,-4.013 c -1.43334,-1.446 -2.10607,1.41 0,0 z m 7.272,-3.363 c 14.75538,-8.272 -12.45541,0.609 0,0 z m 14.6332,-10.814 c 8.78149,-6.44 8.35322,-9.577 -0.33564,-1.966 -3.61689,1.953 -5.14558,8.019 0.33564,1.966 z m 16.3274,-15.754 c -2.16012,-5.876 -4.57702,2.966 0,0 z"
           style="fill:#317192;fill-opacity:1" />
        <path
           id="path3010-9-0-5-9-8-1-7"
           d="m -759.91624,12955.652 c -11.0705,0.103 -22.1531,0.816 -33.2187,2.125 -0.1453,0.02 -0.2922,0.01 -0.4375,0.03 -74.2258,3.8 -146.031,26.097 -212.12496,58.812 -0.146,0.07 -0.2916,0.147 -0.4375,0.219 -18.2157,7.411 -34.7243,17.163 -50.5,27.75 -28.4494,17.9 -55.524,37.983 -80.875,60.094 -0.2732,0.238 -0.5398,0.48 -0.8125,0.719 -53.2687,44.98 -100.8714,96.86 -142.5626,152.437 l -0.094,0.125 -0.062,0.125 c -4.1808,6.168 -8.2583,12.424 -12.2499,18.75 -42.9116,64.502 -73.8078,136.932 -89.25,213.031 -15.0488,81.682 -17.4575,175.679 34,245.313 0.1114,0.151 0.2007,0.318 0.3125,0.469 6.2342,9.121 13.1216,17.768 20.6563,25.875 0.063,0.07 0.1246,0.144 0.1875,0.218 43.6202,51.439 112.8752,61.041 173.1874,69.344 l 0.1875,0 0.1875,0.03 c 42.174,3.094 85.2744,0.672 126.8125,-7.562 0.085,-0.01 0.1654,-0.05 0.25,-0.06 119.57836,-19.167 229.83196,-76.973 321.65626,-154.032 l 0.094,-0.06 0.062,-0.06 c 137.7343,-123.434 229.5641,-306.644 220.7812,-494.438 -2.3808,-49.901 -14.1591,-108.342 -60.2812,-139.344 -59.4919,-51.552 -136.9574,-80.636 -215.46877,-79.906 z m 0.125,12.406 c 56.62277,-0.511 112.82467,15.167 161.53127,44 10.1835,12.313 15.7467,28.01 13.3125,47.844 -19.1795,98.455 -80.1793,183.422 -146.99997,256.125 -144.2896,153.348 -331.36346,266.433 -533.50006,325 -22.1003,10.374 -46.9078,-4.634 -56.1561,-25.281 -14.6396,-52.195 -10.7198,-108.391 -3.6875,-161.688 16.4237,-110.828 70.13,-211.61 145.0936,-293.5 24.0791,-23.922 49.5098,-46.412 76.2813,-67.094 0.055,-0.04 0.1012,-0.09 0.1563,-0.125 0.03,-0.02 0.064,-0.04 0.094,-0.06 34.1746,-23.626 65.1955,-50.031 102.625,-65.156 l 0.2187,-0.09 0.1875,-0.09 c 65.14736,-32.305 135.65596,-54.112 208.12496,-57.75 l 0.1875,-0.03 0.2188,0 c 10.7522,-1.288 21.5432,-1.996 32.3125,-2.094 z m 249.68747,150.719 c 2.8727,-0.07 6.0275,6.829 10.7188,26.25 1.4506,10.202 2.3343,20.446 2.8125,30.469 8.5729,183.305 -81.3631,363.282 -216.49997,484.468 -90.4824,75.933 -198.8755,132.647 -315.87496,151.344 l -0.125,0 -0.125,0.03 c -4.8335,0.961 -9.687,1.825 -14.5625,2.625 -32.3651,2.136 -65.0697,2.208 -97,-4.031 -59.8461,-10.722 -25.4287,-47.225 9.1562,-66.656 119.6134,-91.049 230.84216,-193.289 338.81246,-297.938 85.4713,-82.498 160.36387,-169.732 241.40627,-256.531 17.4626,-21.143 18.8759,-28.335 28.0312,-45.75 6.0079,-11.428 9.3649,-24.185 13.25,-24.281 z"
           style="font-size:medium;font-style:normal;font-variant:normal;font-weight:normal;font-stretch:normal;text-indent:0;text-align:start;text-decoration:none;line-height:normal;letter-spacing:normal;word-spacing:normal;text-transform:none;direction:ltr;block-progression:tb;writing-mode:lr-tb;text-anchor:start;baseline-shift:baseline;color:#000000;fill:#317192;fill-opacity:1;stroke:none;stroke-width:12.40282631;marker:none;visibility:visible;display:inline;overflow:visible;enable-background:accumulate;font-family:Sans;-inkscape-font-specification:Sans"
           inkscape:connector-curvature="0"
           sodipodi:nodetypes="ccccccccccccccccccccccccccccccccccccccccccccccccccccccccccccscc" />
        <path
           style="font-size:medium;font-style:normal;font-variant:normal;font-weight:normal;font-stretch:normal;text-indent:0;text-align:start;text-decoration:none;line-height:normal;letter-spacing:normal;word-spacing:normal;text-transform:none;direction:ltr;block-progression:tb;writing-mode:lr-tb;text-anchor:start;baseline-shift:baseline;color:#000000;fill:#317192;fill-opacity:1;stroke:none;stroke-width:12.40282631;marker:none;visibility:visible;display:inline;overflow:visible;enable-background:accumulate;font-family:Sans;-inkscape-font-specification:Sans"
           d="m -1177.6065,13246.682 c -50.6335,54.76 -90.7989,120.439 -110.0313,192.875 -11.4124,46.669 -23.7461,121.491 33.9375,141.75 20.2825,4.324 41.3206,0.424 60.4688,-6.75 94.0936,-41.645 176.8298,-107.581 246.03107,-183.219 -56.52007,42.848 -111.10067,89.186 -174.06237,122.563 -42.4756,28.833 -126.2348,48.223 -146.0625,-15.781 -13.0674,-92.994 38.6201,-178.363 89.7188,-251.438 z"
           id="path3010-9-0-5-9-3-5-7-0-4"
           inkscape:connector-curvature="0"
           sodipodi:nodetypes="cccccccc" />
        <path
           style="font-size:medium;font-style:normal;font-variant:normal;font-weight:normal;font-stretch:normal;text-indent:0;text-align:start;text-decoration:none;line-height:normal;letter-spacing:normal;word-spacing:normal;text-transform:none;direction:ltr;block-progression:tb;writing-mode:lr-tb;text-anchor:start;baseline-shift:baseline;color:#000000;fill:#317192;fill-opacity:1;stroke:none;stroke-width:12.40282631;marker:none;visibility:visible;display:inline;overflow:visible;enable-background:accumulate;font-family:Sans;-inkscape-font-specification:Sans"
           d="m -763.67798,12996.376 c -69.142,0.203 -139.1073,25.996 -197.2188,61.938 58.2817,-27.13 120.3837,-51.165 185.5938,-51.219 45.4494,-3.229 111.32617,15.908 109.43747,71.594 -15.078,68.119 -73.45007,113.145 -116.03127,164.406 40.702,-27.219 76.12057,-61.807 106.53127,-100.062 33.6488,-31.923 58.5408,-95.305 10.9375,-126.844 -31.9065,-13.905 -65.48287,-19.913 -99.24997,-19.813 z"
           id="path3010-9-0-5-9-3-5-4-1-3"
           inkscape:connector-curvature="0" />
      </g>
    </g>
  </g>
</svg>
